<svg width="279" height="259" viewBox="0 0 279 259" fill="none" xmlns="http://www.w3.org/2000/svg">
<ellipse cx="154.143" cy="133.504" rx="124.518" ry="125.102" fill="#6D4C41"/>
<path d="M64.7801 213.099C86.9988 221.501 100.853 250.203 125.906 250.203C156.457 250.203 164.302 241.574 164.302 213.099C164.302 165.663 139.826 148.441 114.772 148.441C89.7188 148.441 64.7801 165.663 64.7801 213.099Z" fill="black"/>
<path d="M64.8049 210.525C64.3841 197.821 68.8715 160.644 90.0842 151.579C111.297 142.515 137.644 147.802 148.166 151.579C158.127 154.154 177.797 167.648 176.787 201.022C175.524 242.74 67.3303 247.608 64.8049 210.525Z" fill="black"/>
<ellipse cx="119.889" cy="107.363" rx="49.5293" ry="49.4805" fill="#6D4C41"/>
<path d="M225.891 232.465C203.672 240.867 194.471 251.137 169.418 251.137C138.867 251.137 126.369 260.939 126.369 232.465C126.369 185.029 144.365 149.842 169.418 149.842C194.471 149.842 225.891 185.029 225.891 232.465Z" fill="white"/>
<path d="M135.19 201.022C134.77 188.318 139.231 160.644 160.444 151.579C181.656 142.515 208.004 147.802 218.526 151.579C228.487 154.154 248.156 167.648 247.146 201.022C245.883 242.74 137.716 238.104 135.19 201.022Z" fill="white"/>
<ellipse cx="190.711" cy="133.037" rx="32.4023" ry="24.7402" fill="#6D4C41"/>
<ellipse cx="190.248" cy="112.031" rx="40.2715" ry="40.1445" fill="white"/>
<ellipse cx="119.889" cy="112.031" rx="40.2715" ry="40.1445" fill="black"/>
<path d="M154.143 15.9023C218.737 15.9023 271.16 68.5212 271.16 133.504C271.16 198.487 218.737 251.105 154.143 251.105C89.5486 251.105 37.125 198.487 37.125 133.504C37.125 68.5212 89.5486 15.9023 154.143 15.9023Z" stroke="#6D4C41" stroke-width="15"/>
</svg>
