<svg width="160" height="387" viewBox="0 0 160 387" fill="none" xmlns="http://www.w3.org/2000/svg">
<path d="M21.2186 307.5C9.61855 323.5 6.71855 338.5 6.71855 344C1.11855 330.8 0.051885 316.833 0.218552 311.5C4.21855 304.3 17.2186 295.833 23.2186 292.5C21.6186 298.5 21.2186 305 21.2186 307.5Z" fill="#D7AF6F"/>
<path d="M28.2186 280.5C15.4186 281.7 5.55188 285.667 2.21855 287.5C2.21855 281.5 6.88522 273.333 9.21855 270C16.0186 264.8 37.3852 259.167 47.2186 257C34.4186 268.2 29.2186 277.333 28.2186 280.5Z" fill="#D7AF6F"/>
<path d="M64.2186 235.5C57.8186 243.5 32.8852 250.5 21.2186 253L51.2186 217.5L77.2186 214.5C75.5519 218.167 70.6186 227.5 64.2186 235.5Z" fill="#D7AF6F"/>
<path d="M93.2186 78.5L64.7186 107.5V111H93.2186V78.5Z" fill="#D7AF6F"/>
<path d="M93.2186 64L64.7186 92V64L93.2186 34V64Z" fill="#D7AF6F"/>
<path d="M91.7186 20.5L64.7186 42.5V17L78.2186 0H91.7186V20.5Z" fill="#D7AF6F"/>
<path d="M98.7186 203.5C90.7186 209.9 87.7186 221.833 87.2186 227C80.4186 216.6 79.3852 207 79.7186 203.5H98.7186Z" fill="#D7AF6F"/>
<path d="M41.7186 191.5C36.9186 180.7 46.3852 173.333 51.7186 171C48.8852 169.833 42.9186 165.3 41.7186 156.5C40.5186 147.7 48.5519 142.833 52.7186 141.5C50.2186 141.667 44.8186 139.2 43.2186 128C41.6186 116.8 51.2186 112.333 56.2186 111.5C62.5519 111.167 79.1186 110.7 94.7186 111.5C114.219 112.5 113.719 119 115.219 126C116.419 131.6 110.052 139 106.719 142C108.552 142.5 112.819 145.6 115.219 154C117.619 162.4 110.552 168.833 106.719 171C115.519 173.8 117.052 182.167 116.719 186C116.719 207 86.7186 203.5 79.2186 203C71.7186 202.5 47.7186 205 41.7186 191.5Z" fill="#D7AF6F" stroke="#B89257" stroke-width="10"/>
<path d="M121.719 236.5L119.719 264.5C110.919 256.5 102.719 247.5 99.7186 244L104.719 214C111.119 224.8 118.719 233.5 121.719 236.5Z" fill="#D7AF6F"/>
<path d="M152.719 276.5C153.519 281.7 142.719 294.667 137.219 300.5C137.219 286.9 131.219 277.833 128.219 275L135.219 249C140.719 256 151.919 271.3 152.719 276.5Z" fill="#D7AF6F"/>
<path d="M36.7186 345.5V373C26.7186 366.6 20.2186 359.667 18.2186 357C17.0186 344.2 21.0519 326 23.2186 318.5C25.6186 333.7 33.2186 342.833 36.7186 345.5Z" fill="#D7AF6F"/>
<path d="M68.7186 363C57.5186 361.4 49.3852 356.333 46.7186 354C45.5186 368.4 52.8852 379.667 56.7186 383.5C74.3186 388.7 92.3852 385.667 99.2186 383.5C84.0186 380.7 72.5519 368.667 68.7186 363Z" fill="#D7AF6F"/>
<path d="M112.719 354C103.919 360 93.3852 362.5 89.2186 363C98.4186 373.4 112.052 376.667 117.719 377C134.919 369 145.552 352.667 148.719 345.5C137.919 352.7 120.219 354.167 112.719 354Z" fill="#D7AF6F"/>
<path d="M156.719 325C155.119 331.8 135.385 338.5 125.719 341C133.319 335.8 137.219 322.167 138.219 316C148.219 312.8 156.385 301 159.219 295.5C160.219 299.5 158.719 316.5 156.719 325Z" fill="#D7AF6F"/>
</svg>
