<svg width="256" height="256" viewBox="0 0 256 256" fill="none" xmlns="http://www.w3.org/2000/svg">
<ellipse cx="130.5" cy="145" rx="106.5" ry="105" fill="#6D4C41"/>
<path d="M70.0284 215.321C69.5738 201.713 74.3929 172.07 97.3061 162.361C120.219 152.652 148.679 158.315 160.045 162.361C170.804 165.119 192.051 179.573 190.96 215.321C189.596 260.006 72.7562 255.041 70.0284 215.321Z" fill="black"/>
<ellipse cx="129.5" cy="115" rx="53.5" ry="53" fill="#6D4C41"/>
<ellipse cx="129.5" cy="120" rx="43.5" ry="43" fill="black"/>
<path d="M130.5 45C186.624 45 232 89.8382 232 145C232 200.162 186.624 245 130.5 245C74.376 245 29 200.162 29 145C29 89.8382 74.376 45 130.5 45Z" stroke="#6D4C41" stroke-width="10"/>
</svg>
