<svg width="124" height="106" viewBox="0 0 124 106" fill="none" xmlns="http://www.w3.org/2000/svg">
<path d="M73 62C67.8 60 73.8333 52.5 77.5 49C72.5 47.6667 63.4 44 67 40C70.6 36 79.5 40.6667 83.5 43.5C87 40.5 94.8 35.2 98 38C101.2 40.8 95.6667 45.8333 92.5 48C100 54.5 100.5 56 100 61C99.6 65 89.8333 58 85 54C83.1667 57.5 78.2 64 73 62Z" fill="black"/>
<path d="M1.49998 72C-4.10002 37.2 23.1666 17.5 37.5 12C39.6667 11.3333 44.4 10.8 46 14C47.6 17.2 43.6667 19.6667 41.5 20.5C11.1 33.3 7.83333 57.5 10 68C23.2 106 69.5 99.1667 91 91C102.333 82.3333 121.5 58.9 107.5 34.5C93.5 10.1 62 8 48 10C41.6 8.4 44 4.66667 46 3.00001C90.4 -7.39999 114.167 19 120.5 33.5C134.5 76.3 99 98 79.5 103.5C55.8333 107.5 7.09998 106.8 1.49998 72Z" fill="black"/>
<path d="M23.5 63C20.3 58.2 26.1667 52.6667 29.5 50.5C27.5 48.8333 24.1 44.7 26.5 41.5C28.9 38.3 33.8333 41.1667 36 43C43.2 33.8 47.3333 34.8333 48.5 36.5C52.5 39.3 46.8333 45.6667 43.5 48.5C52.7 55.3 51.6667 59.6667 50 61C47.6 64.6 40.3333 58.1667 37 54.5C28.6 64.9 24.5 64.5 23.5 63Z" fill="black"/>
</svg>
