<svg width="213" height="210" viewBox="0 0 213 210" fill="none" xmlns="http://www.w3.org/2000/svg">
<ellipse cx="106.5" cy="105" rx="106.5" ry="105" fill="#D41C1C"/>
<path d="M176.5 166.5C176.5 196.6 145.832 182.5 108 182.5C70.1685 182.5 39.5 196.6 39.5 166.5C39.5 136.4 70.1685 112 108 112C145.832 112 176.5 136.4 176.5 166.5Z" fill="black"/>
<path d="M176 172.5C176 204.809 145.832 185 108 185C70.1685 185 39 204.809 39 172.5C39 140.191 70.1685 120 108 120C145.832 120 176 140.191 176 172.5Z" fill="#D41C1C"/>
<ellipse cx="68" cy="74.5" rx="25" ry="24.5" fill="black"/>
<ellipse cx="151" cy="72" rx="26" ry="27" fill="black"/>
<path d="M98 35V96L40 49.0769L98 35Z" fill="#D41C1C"/>
<path d="M116 32V99L176 47.4615L116 32Z" fill="#D41C1C"/>
</svg>
